<mxfile host="app.diagrams.net" modified="2023-07-19T14:00:30.872Z" agent="Mozilla/5.0 (Windows NT 10.0; Win64; x64) AppleWebKit/537.36 (KHTML, like Gecko) Chrome/114.0.0.0 Safari/537.36 Edg/114.0.1823.82" etag="DkinjeaETyw-7yUYS2oc" version="21.6.3" type="github">
  <diagram id="C5RBs43oDa-KdzZeNtuy" name="Page-1">
    <mxGraphModel dx="996" dy="549" grid="1" gridSize="10" guides="1" tooltips="1" connect="1" arrows="1" fold="1" page="1" pageScale="1" pageWidth="827" pageHeight="1169" math="0" shadow="0">
      <root>
        <mxCell id="WIyWlLk6GJQsqaUBKTNV-0" />
        <mxCell id="WIyWlLk6GJQsqaUBKTNV-1" parent="WIyWlLk6GJQsqaUBKTNV-0" />
        <mxCell id="WIyWlLk6GJQsqaUBKTNV-3" value="Mensaje de bienvenida&amp;nbsp;" style="rounded=1;whiteSpace=wrap;html=1;fontSize=12;glass=0;strokeWidth=1;shadow=0;" parent="WIyWlLk6GJQsqaUBKTNV-1" vertex="1">
          <mxGeometry x="354" y="110" width="120" height="40" as="geometry" />
        </mxCell>
        <mxCell id="oFDpxJeYynIPH8nCqKxO-1" value="" style="rounded=0;html=1;jettySize=auto;orthogonalLoop=1;fontSize=11;endArrow=block;endFill=0;endSize=8;strokeWidth=1;shadow=0;labelBackgroundColor=none;edgeStyle=orthogonalEdgeStyle;" parent="WIyWlLk6GJQsqaUBKTNV-1" source="WIyWlLk6GJQsqaUBKTNV-3" target="oFDpxJeYynIPH8nCqKxO-0" edge="1">
          <mxGeometry relative="1" as="geometry">
            <mxPoint x="393" y="150" as="sourcePoint" />
            <mxPoint x="393" y="200" as="targetPoint" />
          </mxGeometry>
        </mxCell>
        <mxCell id="oFDpxJeYynIPH8nCqKxO-9" value="" style="edgeStyle=orthogonalEdgeStyle;rounded=0;orthogonalLoop=1;jettySize=auto;html=1;" parent="WIyWlLk6GJQsqaUBKTNV-1" source="oFDpxJeYynIPH8nCqKxO-0" target="oFDpxJeYynIPH8nCqKxO-8" edge="1">
          <mxGeometry relative="1" as="geometry" />
        </mxCell>
        <mxCell id="oFDpxJeYynIPH8nCqKxO-0" value="Ingreso de datos" style="rounded=1;whiteSpace=wrap;html=1;" parent="WIyWlLk6GJQsqaUBKTNV-1" vertex="1">
          <mxGeometry x="354" y="180" width="120" height="60" as="geometry" />
        </mxCell>
        <mxCell id="oFDpxJeYynIPH8nCqKxO-31" value="" style="edgeStyle=orthogonalEdgeStyle;rounded=0;orthogonalLoop=1;jettySize=auto;html=1;" parent="WIyWlLk6GJQsqaUBKTNV-1" source="oFDpxJeYynIPH8nCqKxO-8" target="oFDpxJeYynIPH8nCqKxO-30" edge="1">
          <mxGeometry relative="1" as="geometry" />
        </mxCell>
        <mxCell id="oFDpxJeYynIPH8nCqKxO-8" value="peso = Convert.ToDouble(txtpeso.Text);" style="shape=parallelogram;perimeter=parallelogramPerimeter;whiteSpace=wrap;html=1;fixedSize=1;rounded=1;" parent="WIyWlLk6GJQsqaUBKTNV-1" vertex="1">
          <mxGeometry x="261" y="300" width="306" height="60" as="geometry" />
        </mxCell>
        <mxCell id="k-AUnhLWSu1Wqkw1lmfP-7" value="" style="edgeStyle=orthogonalEdgeStyle;rounded=0;orthogonalLoop=1;jettySize=auto;html=1;" edge="1" parent="WIyWlLk6GJQsqaUBKTNV-1" source="oFDpxJeYynIPH8nCqKxO-10" target="k-AUnhLWSu1Wqkw1lmfP-6">
          <mxGeometry relative="1" as="geometry" />
        </mxCell>
        <mxCell id="oFDpxJeYynIPH8nCqKxO-10" value="talla= Convert.ToDouble(txttalla.Text);" style="shape=parallelogram;perimeter=parallelogramPerimeter;whiteSpace=wrap;html=1;fixedSize=1;rounded=1;" parent="WIyWlLk6GJQsqaUBKTNV-1" vertex="1">
          <mxGeometry x="175" y="560" width="296" height="60" as="geometry" />
        </mxCell>
        <mxCell id="k-AUnhLWSu1Wqkw1lmfP-20" value="" style="edgeStyle=orthogonalEdgeStyle;rounded=0;orthogonalLoop=1;jettySize=auto;html=1;" edge="1" parent="WIyWlLk6GJQsqaUBKTNV-1" source="oFDpxJeYynIPH8nCqKxO-12" target="k-AUnhLWSu1Wqkw1lmfP-19">
          <mxGeometry relative="1" as="geometry" />
        </mxCell>
        <mxCell id="oFDpxJeYynIPH8nCqKxO-12" value="edad = Convert.ToDouble(txtedad.Text);" style="shape=parallelogram;perimeter=parallelogramPerimeter;whiteSpace=wrap;html=1;fixedSize=1;rounded=1;" parent="WIyWlLk6GJQsqaUBKTNV-1" vertex="1">
          <mxGeometry x="160" y="790" width="326" height="60" as="geometry" />
        </mxCell>
        <mxCell id="oFDpxJeYynIPH8nCqKxO-17" value="" style="edgeStyle=orthogonalEdgeStyle;rounded=0;orthogonalLoop=1;jettySize=auto;html=1;" parent="WIyWlLk6GJQsqaUBKTNV-1" source="oFDpxJeYynIPH8nCqKxO-14" target="oFDpxJeYynIPH8nCqKxO-16" edge="1">
          <mxGeometry relative="1" as="geometry" />
        </mxCell>
        <mxCell id="oFDpxJeYynIPH8nCqKxO-14" value="calorias = 66 + (13.75 * peso) + (5 * talla) - (6.75 * edad);" style="shape=process;whiteSpace=wrap;html=1;backgroundOutline=1;rounded=1;" parent="WIyWlLk6GJQsqaUBKTNV-1" vertex="1">
          <mxGeometry x="121" y="990" width="446" height="60" as="geometry" />
        </mxCell>
        <mxCell id="oFDpxJeYynIPH8nCqKxO-16" value="lblresultado.Text = calorias.ToString() + &quot; kcal/dia &quot;;" style="shape=document;whiteSpace=wrap;html=1;boundedLbl=1;rounded=1;" parent="WIyWlLk6GJQsqaUBKTNV-1" vertex="1">
          <mxGeometry x="196" y="1095" width="296" height="80" as="geometry" />
        </mxCell>
        <mxCell id="k-AUnhLWSu1Wqkw1lmfP-2" value="" style="edgeStyle=orthogonalEdgeStyle;rounded=0;orthogonalLoop=1;jettySize=auto;html=1;" edge="1" parent="WIyWlLk6GJQsqaUBKTNV-1" source="oFDpxJeYynIPH8nCqKxO-30" target="k-AUnhLWSu1Wqkw1lmfP-1">
          <mxGeometry relative="1" as="geometry" />
        </mxCell>
        <mxCell id="k-AUnhLWSu1Wqkw1lmfP-5" style="edgeStyle=orthogonalEdgeStyle;rounded=0;orthogonalLoop=1;jettySize=auto;html=1;exitX=0.5;exitY=1;exitDx=0;exitDy=0;entryX=0.5;entryY=0;entryDx=0;entryDy=0;" edge="1" parent="WIyWlLk6GJQsqaUBKTNV-1" source="oFDpxJeYynIPH8nCqKxO-30" target="oFDpxJeYynIPH8nCqKxO-10">
          <mxGeometry relative="1" as="geometry" />
        </mxCell>
        <mxCell id="oFDpxJeYynIPH8nCqKxO-30" value="!string.IsNullOrEmpty(txttalla.Text)" style="rhombus;whiteSpace=wrap;html=1;rounded=1;" parent="WIyWlLk6GJQsqaUBKTNV-1" vertex="1">
          <mxGeometry x="181" y="440" width="284" height="80" as="geometry" />
        </mxCell>
        <mxCell id="k-AUnhLWSu1Wqkw1lmfP-17" style="edgeStyle=orthogonalEdgeStyle;rounded=0;orthogonalLoop=1;jettySize=auto;html=1;exitX=0.5;exitY=0;exitDx=0;exitDy=0;entryX=1;entryY=0.5;entryDx=0;entryDy=0;" edge="1" parent="WIyWlLk6GJQsqaUBKTNV-1" source="k-AUnhLWSu1Wqkw1lmfP-1" target="oFDpxJeYynIPH8nCqKxO-8">
          <mxGeometry relative="1" as="geometry">
            <Array as="points">
              <mxPoint x="623" y="330" />
            </Array>
          </mxGeometry>
        </mxCell>
        <mxCell id="k-AUnhLWSu1Wqkw1lmfP-1" value="DisplayAlert(&quot;Error&quot;, &quot;Ingrese su estatura&quot;, &quot;OK&quot;);" style="shape=document;whiteSpace=wrap;html=1;boundedLbl=1;rounded=1;" vertex="1" parent="WIyWlLk6GJQsqaUBKTNV-1">
          <mxGeometry x="519" y="440" width="208" height="80" as="geometry" />
        </mxCell>
        <mxCell id="k-AUnhLWSu1Wqkw1lmfP-3" value="Si" style="text;html=1;strokeColor=none;fillColor=none;align=center;verticalAlign=middle;whiteSpace=wrap;rounded=0;" vertex="1" parent="WIyWlLk6GJQsqaUBKTNV-1">
          <mxGeometry x="259" y="520" width="60" height="30" as="geometry" />
        </mxCell>
        <mxCell id="k-AUnhLWSu1Wqkw1lmfP-4" value="No" style="text;html=1;strokeColor=none;fillColor=none;align=center;verticalAlign=middle;whiteSpace=wrap;rounded=0;" vertex="1" parent="WIyWlLk6GJQsqaUBKTNV-1">
          <mxGeometry x="459" y="450" width="60" height="30" as="geometry" />
        </mxCell>
        <mxCell id="k-AUnhLWSu1Wqkw1lmfP-9" value="" style="edgeStyle=orthogonalEdgeStyle;rounded=0;orthogonalLoop=1;jettySize=auto;html=1;" edge="1" parent="WIyWlLk6GJQsqaUBKTNV-1" source="k-AUnhLWSu1Wqkw1lmfP-6" target="k-AUnhLWSu1Wqkw1lmfP-8">
          <mxGeometry relative="1" as="geometry" />
        </mxCell>
        <mxCell id="k-AUnhLWSu1Wqkw1lmfP-14" style="edgeStyle=orthogonalEdgeStyle;rounded=0;orthogonalLoop=1;jettySize=auto;html=1;exitX=0.5;exitY=1;exitDx=0;exitDy=0;entryX=0.5;entryY=0;entryDx=0;entryDy=0;" edge="1" parent="WIyWlLk6GJQsqaUBKTNV-1" source="k-AUnhLWSu1Wqkw1lmfP-6" target="oFDpxJeYynIPH8nCqKxO-12">
          <mxGeometry relative="1" as="geometry" />
        </mxCell>
        <mxCell id="k-AUnhLWSu1Wqkw1lmfP-6" value="!string.IsNullOrEmpty(txtpeso.Text)" style="rhombus;whiteSpace=wrap;html=1;rounded=1;" vertex="1" parent="WIyWlLk6GJQsqaUBKTNV-1">
          <mxGeometry x="200" y="660" width="246" height="80" as="geometry" />
        </mxCell>
        <mxCell id="k-AUnhLWSu1Wqkw1lmfP-18" style="edgeStyle=orthogonalEdgeStyle;rounded=0;orthogonalLoop=1;jettySize=auto;html=1;exitX=0.5;exitY=0;exitDx=0;exitDy=0;entryX=1;entryY=0.5;entryDx=0;entryDy=0;" edge="1" parent="WIyWlLk6GJQsqaUBKTNV-1" source="k-AUnhLWSu1Wqkw1lmfP-8" target="oFDpxJeYynIPH8nCqKxO-10">
          <mxGeometry relative="1" as="geometry">
            <Array as="points">
              <mxPoint x="623" y="590" />
            </Array>
          </mxGeometry>
        </mxCell>
        <mxCell id="k-AUnhLWSu1Wqkw1lmfP-8" value="DisplayAlert(&quot;Error&quot;, &quot;Ingrese su peso&quot;, &quot;OK&quot;);" style="shape=document;whiteSpace=wrap;html=1;boundedLbl=1;rounded=1;" vertex="1" parent="WIyWlLk6GJQsqaUBKTNV-1">
          <mxGeometry x="523" y="660" width="200" height="80" as="geometry" />
        </mxCell>
        <mxCell id="k-AUnhLWSu1Wqkw1lmfP-10" value="No" style="text;html=1;strokeColor=none;fillColor=none;align=center;verticalAlign=middle;whiteSpace=wrap;rounded=0;" vertex="1" parent="WIyWlLk6GJQsqaUBKTNV-1">
          <mxGeometry x="446" y="670" width="60" height="30" as="geometry" />
        </mxCell>
        <mxCell id="k-AUnhLWSu1Wqkw1lmfP-11" value="Si" style="text;html=1;strokeColor=none;fillColor=none;align=center;verticalAlign=middle;whiteSpace=wrap;rounded=0;" vertex="1" parent="WIyWlLk6GJQsqaUBKTNV-1">
          <mxGeometry x="259" y="740" width="60" height="30" as="geometry" />
        </mxCell>
        <mxCell id="k-AUnhLWSu1Wqkw1lmfP-16" style="edgeStyle=orthogonalEdgeStyle;rounded=0;orthogonalLoop=1;jettySize=auto;html=1;exitX=0.5;exitY=1;exitDx=0;exitDy=0;entryX=0.5;entryY=0;entryDx=0;entryDy=0;" edge="1" parent="WIyWlLk6GJQsqaUBKTNV-1" source="k-AUnhLWSu1Wqkw1lmfP-15" target="WIyWlLk6GJQsqaUBKTNV-3">
          <mxGeometry relative="1" as="geometry" />
        </mxCell>
        <mxCell id="k-AUnhLWSu1Wqkw1lmfP-15" value="INICIO" style="ellipse;whiteSpace=wrap;html=1;aspect=fixed;" vertex="1" parent="WIyWlLk6GJQsqaUBKTNV-1">
          <mxGeometry x="374" y="10" width="80" height="80" as="geometry" />
        </mxCell>
        <mxCell id="k-AUnhLWSu1Wqkw1lmfP-19" value="!string.IsNullOrEmpty(txtedad.Text)" style="rhombus;whiteSpace=wrap;html=1;rounded=1;" vertex="1" parent="WIyWlLk6GJQsqaUBKTNV-1">
          <mxGeometry x="283" y="920" width="80" height="80" as="geometry" />
        </mxCell>
      </root>
    </mxGraphModel>
  </diagram>
</mxfile>
